<?xml version="1.0" encoding="UTF-8" standalone="no"?>
<svg
   fill="none"
   viewBox="0 0 223 46"
   version="1.1"
   id="svg433"
   sodipodi:docname="TopNavbarLogo.svg"
   inkscape:version="1.2.2 (b0a84865, 2022-12-01)"
   width="223"
   height="46"
   xmlns:inkscape="http://www.inkscape.org/namespaces/inkscape"
   xmlns:sodipodi="http://sodipodi.sourceforge.net/DTD/sodipodi-0.dtd"
   xmlns="http://www.w3.org/2000/svg"
   xmlns:svg="http://www.w3.org/2000/svg">
  <defs
     id="defs437">
    <linearGradient
       id="linearGradient41609"
       inkscape:swatch="solid">
      <stop
         style="stop-color:#148aab;stop-opacity:1;"
         offset="0"
         id="stop41607" />
    </linearGradient>
  </defs>
  <sodipodi:namedview
     id="namedview435"
     pagecolor="#ffffff"
     bordercolor="#000000"
     borderopacity="0.25"
     inkscape:showpageshadow="2"
     inkscape:pageopacity="0.0"
     inkscape:pagecheckerboard="0"
     inkscape:deskcolor="#d1d1d1"
     showgrid="false"
     inkscape:zoom="4.6081906"
     inkscape:cx="20.832472"
     inkscape:cy="12.36928"
     inkscape:window-width="1878"
     inkscape:window-height="722"
     inkscape:window-x="95"
     inkscape:window-y="303"
     inkscape:window-maximized="0"
     inkscape:current-layer="svg433">
    <inkscape:grid
       type="xygrid"
       id="grid26905"
       originx="0"
       originy="0" />
  </sodipodi:namedview>
  <ellipse
     style="fill:#ffffff;stroke:none;stroke-width:4.05385;stroke-linejoin:round"
     id="path912"
     ry="20.798899"
     rx="21.001425"
     cy="23.279865"
     cx="21.795496" />
  <text
     xml:space="preserve"
     style="font-style:normal;font-variant:normal;font-weight:400;font-stretch:normal;font-size:26.8244px;line-height:1.05;font-family:Arial;-inkscape-font-specification:Arial;display:inline;fill:#f2f2f2;fill-opacity:1;stroke:none;stroke-width:1.82893"
     x="50.025234"
     y="33.342628"
     id="text411"
     inkscape:label="text411"><tspan
       x="50.025234"
       y="33.342628"
       style="font-style:normal;font-variant:normal;font-weight:400;font-stretch:normal;font-size:26.8244px;font-family:Arial;-inkscape-font-specification:Arial;fill:#f2f2f2;stroke-width:1.82893"
       rotate="0 0 0 0 0 0 0 0 0 0 0 0"
       id="tspan409">Crowdtainer</tspan></text>
  <path
     style="display:inline;fill:#148aab;fill-opacity:1;stroke-width:0.0460247"
     d="M 21.236701,43.297584 C 19.031023,43.190497 17.304258,42.881138 15.381168,42.241595 A 19.971574,19.971574 0 0 1 9.1329872,38.832686 C 8.4161044,38.252635 8.1692113,38.034001 8.1989574,38.004255 c 0.010405,-0.01037 0.245406,-0.05205 0.5220448,-0.09221 0.606822,-0.08924 2.2859928,-0.104114 2.8957888,-0.02826 0.227558,0.02974 0.621695,0.07586 0.874538,0.104114 0.902796,0.101142 2.59089,0.586 3.704885,1.066401 0.291511,0.126421 0.788272,0.337618 1.10507,0.469988 1.212155,0.510148 1.775845,0.773401 2.000429,0.932542 0.617233,0.440244 1.581009,1.259751 1.997455,1.698507 l 0.461066,0.487838 0.359929,-0.322747 c 0.197811,-0.178477 0.679699,-0.575589 1.070861,-0.883461 0.392649,-0.307873 0.962288,-0.761502 1.267187,-1.008395 0.841816,-0.687136 1.344527,-1.011369 2.305328,-1.491769 1.662809,-0.831406 2.257733,-1.035168 3.60821,-1.235954 0.624669,-0.0937 0.881973,-0.107087 2.048023,-0.104114 0.954851,0.0015 1.505155,0.0238 1.9335,0.07735 0.328695,0.04165 0.748116,0.08924 0.932542,0.1056 0.182939,0.01785 0.342081,0.04462 0.35398,0.06395 0.03272,0.05205 -0.812071,0.77935 -1.561673,1.346015 -1.073838,0.809095 -1.963248,1.351963 -3.269105,1.99448 -1.995967,0.981623 -3.709346,1.527465 -5.937334,1.885906 -0.962288,0.154681 -2.778292,0.267716 -3.634981,0.227558 z m 2.254759,-3.011798 a 148.45567,148.45567 0 0 1 1.940938,-2.700952 l 0.383725,-0.514609 1.000958,-0.676725 c 1.249339,-0.844791 1.505156,-0.980136 2.709876,-1.442688 1.192821,-0.455117 3.227459,-0.987574 4.595782,-1.201746 1.405506,-0.218634 3.843204,-0.307873 4.394996,-0.159142 0.139807,0.03719 0.322747,0.06841 0.407523,0.06841 0.19335,0 0.19335,0 -0.229046,0.632106 A 21.429136,21.429136 0 0 1 37.0453,36.432164 c -0.724319,0.823969 -0.663339,0.780837 -1.015832,0.724319 A 27.098756,27.098756 0 0 0 35.157905,37.04345 l -0.942952,-0.111546 c -0.684163,-0.08329 -2.399029,-0.114519 -3.014774,-0.05354 -1.293958,0.124934 -2.15511,0.292999 -2.900252,0.56369 -0.536917,0.194837 -2.19824,0.983111 -2.727723,1.293958 -0.520558,0.307873 -1.219592,0.820995 -1.741638,1.28206 -0.209709,0.184426 -0.362903,0.304898 -0.339106,0.267716 z m -4.533315,-0.922132 c -0.139807,-0.07436 -0.553279,-0.272177 -0.922132,-0.440243 A 45.77786,45.77786 0 0 1 17.048441,38.460858 20.730102,20.730102 0 0 0 14.906717,37.605657 C 13.910221,37.300758 13.28109,37.163926 12.100166,36.99586 a 20.221442,20.221442 0 0 1 -0.782324,-0.124934 c -0.312335,-0.06098 -3.0891384,-0.0595 -3.7747874,0 L 7.0596794,36.915546 6.8812024,36.72517 C 6.3249491,36.137683 4.9640622,34.381172 5.0220671,34.324655 a 2.6622817,2.6622817 0 0 1 0.4075225,-0.08924 c 0.2885378,-0.05205 0.7600145,-0.0699 1.8293891,-0.0699 1.4649985,0 1.9335005,0.03719 3.5055843,0.279614 1.59737,0.246893 3.588875,0.974188 5.541712,2.024227 0.871562,0.469989 1.256774,0.724319 1.436739,0.948902 0.133858,0.163605 1.384684,1.903755 1.460537,2.027201 0.04462,0.07436 0.05504,0.07585 -0.245406,-0.08329 z m -2.876454,-3.822381 a 23.088973,23.088973 0 0 0 -2.592378,-1.12738 14.486382,14.486382 0 0 0 -2.929997,-0.730269 C 8.7804942,33.430783 8.7477742,33.427807 7.2098975,33.430783 c -1.3430394,0.0045 -1.5363894,0.01488 -2.0376122,0.108573 a 4.1778488,4.1778488 0 0 1 -0.5993852,0.08775 c -0.1368324,-0.04759 -1.3936078,-2.570068 -1.563161,-3.13822 l -0.032721,-0.11006 1.0292173,0.02528 c 1.4947447,0.0357 3.5308696,0.282588 5.6592088,0.681187 0.5532778,0.104114 0.9370038,0.212685 1.6806578,0.478913 1.670247,0.599385 2.285993,0.876025 3.010312,1.35345 0.336131,0.220123 0.371826,0.263254 1.246363,1.484333 0.980136,1.369812 0.984598,1.377249 0.929568,1.368324 a 5.8094258,5.8094258 0 0 1 -0.450654,-0.22904 z m 11.163735,-0.513122 c 0.130883,-0.184426 0.33167,-0.478914 0.44768,-0.655903 0.361416,-0.551792 1.72379,-1.835339 2.471906,-2.330612 a 6.5039988,6.5039988 0 0 1 2.300866,-0.88941 c 0.101141,-0.01636 0.484863,-0.104114 0.852227,-0.19335 0.739193,-0.178478 2.199729,-0.404548 3.078729,-0.475939 a 18.448571,18.448571 0 0 1 3.157555,0.04759 c 0.853714,0.09965 1.035166,0.130884 1.035166,0.178478 0,0.0699 -0.527994,1.250825 -0.742166,1.661323 -0.361417,0.690111 -0.309361,0.654415 -0.800172,0.577076 a 13.472038,13.472038 0 0 1 -0.658878,-0.118991 c -0.492299,-0.108574 -3.159043,0.006 -4.241803,0.181452 a 32.661289,32.661289 0 0 0 -2.666744,0.580049 c -1.7342,0.432807 -3.37024,1.061939 -4.154051,1.594394 -0.14427,0.09668 -0.275152,0.178478 -0.290026,0.178478 -0.01488,0 0.08032,-0.151705 0.209711,-0.334645 z M 12.974703,31.399119 C 12.607339,31.220643 11.924664,30.944003 11.456162,30.784861 A 39.715591,39.715591 0 0 1 10.373402,30.402622 23.469723,23.469723 0 0 0 8.4220537,29.807699 39.00912,39.00912 0 0 0 6.6001012,29.443309 C 5.9635332,29.340681 4.9030824,29.3154 3.8842764,29.379359 c -0.5056848,0.03124 -0.9920346,0.0595 -1.0812731,0.06247 -0.1606293,0.006 -0.1621166,0.003 -0.2662282,-0.316796 C 2.1961815,28.080935 1.9240041,26.773591 1.7633749,25.421627 1.6622378,24.58576 1.6488522,22.32059 1.7380906,21.462413 1.8645118,20.24282 2.0742223,19.096106 2.3627601,18.047553 a 20.379097,20.379097 0 0 1 4.1823107,-7.830678 20.327041,20.327041 0 0 1 18.7400832,-6.6988362 20.834213,20.834213 0 0 1 6.618522,2.3484596 20.27796,20.27796 0 0 1 6.856491,6.4147606 c 1.496231,2.278557 2.543296,4.884321 2.980565,7.426131 l 0.215659,1.249339 c 0.06098,0.351004 0.07735,0.780836 0.08032,2.208652 0.003,1.759485 -0.03273,2.318713 -0.203762,3.175402 a 33.910628,33.910628 0 0 0 -0.116005,0.644005 c -0.142782,0.835868 -0.218635,1.12143 -0.60831,2.302353 a 4.4797723,4.4797723 0 0 1 -0.188888,0.514609 c -0.01785,0.01636 -0.227558,0 -0.468502,-0.0357 -0.633593,-0.09965 -0.864126,-0.104114 -2.626586,-0.06247 -1.463512,0.0357 -1.680659,0.05205 -2.736647,0.203762 -1.60778,0.23202 -3.481788,0.691598 -4.107945,1.008395 -0.169553,0.08626 -1.009883,0.539893 -1.28206,0.703496 -0.272178,0.163605 4.084148,-7.098922 4.084148,-7.109333 0.722832,-1.506643 -1.038141,-2.199728 -2.049511,-3.209611 l -0.07436,-7.745902 -3.17094,-0.02974 -0.06544,-5.6621834 H 24.58911 l -0.0357,-3.4654281 -5.680032,-0.019335 -0.003,3.4892251 -3.85659,0.00446 -0.03867,5.5402244 -3.46394,0.05205 -0.07437,7.763748 c -1.4977188,1.267187 -2.7366468,2.538835 -2.0435608,3.551692 3.0712908,4.298321 4.2953468,6.948704 4.2626258,6.94573 -0.0075,0 -0.313823,-0.147244 -0.681188,-0.324234 z"
     id="path419" />
  <g
     transform="matrix(0.15351872,0,0,0.15351872,1.9851858,3.1151667)"
     stroke="#000000"
     stroke-width="0.27585px"
     id="g701"
     style="display:inline">
    <path
       d="m 144.74,14.57 -30.922,-0.11237 v 19.115 l 31.027,0.29643 z"
       fill="#3d9f53"
       id="path687"
       style="display:inline" />
    <path
       d="m 90.038,37.433 78.557,0.05727 -0.0409,32.123 -78.436,-1.0573 z"
       fill="#3d9f53"
       id="path689"
       style="display:inline" />
    <path
       d="m 56.8,132.6 71.382,-22.859 -0.70416,60.371 z"
       fill="#355571"
       id="path691"
       style="display:inline" />
    <path
       d="m 129.62,169.99 0.0779,-60.185 70.495,23.578 z"
       fill="#274157"
       id="path693"
       style="display:inline" />
    <path
       d="m 57.135,135.8 70.668,108.76 -0.3613,-69.67 z"
       fill="#355571"
       id="path695"
       style="display:inline" />
    <path
       d="m 129.58,174.87 0.5411,70.3 69.925,-107.26 z"
       fill="#162635"
       id="path697"
       style="display:inline" />
    <path
       d="m 127.21,72.166 -58.416,0.15796 -0.02869,52.212 60.135,-19.997 59.179,19.942 -0.0489,-51.957 z"
       fill="#3d9f53"
       id="path699"
       style="display:inline" />
  </g>
</svg>
