<svg width="114.195" height="114.974" viewBox="0 0 30.214 30.42" xmlns="http://www.w3.org/2000/svg"><path style="fill:#000;stroke-width:.24171" d="M11.16 32.052c-2.165-.654-3.067-3.694-1.46-5.351.268-.489 1.125-.818.72-1.461-1.908-7.28-3.83-14.556-5.716-21.842-1.47-.647-3.24.215-2.792 1.995-.022.88-.517 1.254-.422.246l-.22-3.113c.856-.227 1.659-.888 2.573-.651 1.437-.045 2.59.611 2.504 2.167.37 1.47.77 2.933 1.157 4.4 7.462.029 14.927-.078 22.387.097 1.619-.374 1.867.98 1.352 2.195-.915 3.831-1.822 7.678-3.056 11.42-.744 1.567-2.726 1.289-4.164 1.429-4.15.123-8.302.157-12.453.234l.4 1.6c4.495.033 8.994-.09 13.485.111 1.795-.125 3.485 1.226 3.529 3.078.246 2.167-2.032 4.145-4.136 3.392-1.643-.401-2.403-2.165-2.179-3.722.435-.956.248-1.596-.952-1.366-2.202.023-4.423-.133-6.612.105.017 1.197.63 3.105-.722 4.104-.81.792-2.1 1.47-3.224.933zm2.129-1.8c1.14-.87.675-2.704-.592-3.187-1.502-.688-3.05 1.294-2.191 2.644.511 1.093 1.909 1.48 2.783.544zm13.758-.027c1.433-1.307-.16-4.1-2.011-3.162-1.676.768-1.336 3.068.296 3.63.609.285 1.293 0 1.715-.468zm-.307-8.437c1.26-3.714 2.243-7.525 3.191-11.33-.107-.985-2.219-.27-3.17-.51-6.205-.025-12.414-.099-18.616.103-.371.995.608 2.786.79 4.07.754 2.564 1.336 5.201 2.304 7.69.172.648.876.338 1.37.407 4.433-.039 8.872.105 13.3-.121.288-.045.627-.07.83-.31z" transform="translate(-1.27 -1.824)"/></svg>