<svg fill="none" viewBox="0 0 143 32" xmlns="http://www.w3.org/2000/svg"><text xml:space="preserve" style="font-style:normal;font-variant:normal;font-weight:400;font-stretch:normal;font-size:18.8019px;line-height:1.05;font-family:Arial;-inkscape-font-specification:Arial;fill:#f55;fill-opacity:1;stroke:none;stroke-width:1.28194" x="38.568" y="22.531"><tspan x="38.568" y="22.531" style="font-style:normal;font-variant:normal;font-weight:400;font-stretch:normal;font-size:18.8019px;font-family:Arial;-inkscape-font-specification:Arial;fill:#f55;stroke-width:1.28194" rotate="0 0 0 0 0 0 0 0 0 0 0 0">Crowdtainer</tspan></text><path style="display:inline;fill:#fff;fill-opacity:1;stroke-width:.0699569" d="M16.166 29.924c-5.441-.7-9.957-4.884-11.075-10.259-.88-4.233.341-8.517 3.319-11.646a13.141 13.141 0 0 1 6.972-3.835c1.076-.217 3.192-.269 4.268-.105 2.048.313 3.748.97 5.452 2.104 3.59 2.39 5.771 6.476 5.771 10.807 0 6.468-4.775 11.969-11.202 12.904-.806.118-2.7.134-3.505.03zm1.622-4.661-.003-3.13-3.713-2.19c-2.042-1.204-3.73-2.173-3.75-2.153-.02.02-.005.077.033.126.037.049 1.713 2.426 3.723 5.283s3.667 5.194 3.683 5.194c.017 0 .029-1.408.027-3.13zm3.727-1.786c4.326-6.11 4-5.642 3.954-5.688-.022-.022-1.719.947-3.771 2.153l-3.732 2.193-.018 3.13c-.01 1.72.006 3.128.035 3.127.03 0 1.619-2.213 3.532-4.915zm-3.755-9.83c-.038-.037-7.522 3.43-7.52 3.483 0 .02 1.691 1.036 3.758 2.258l3.759 2.223.018-3.965c.01-2.181.003-3.98-.015-3.999zm3.974 5.734c2.073-1.224 3.772-2.247 3.778-2.275.01-.052-7.452-3.473-7.578-3.473-.05 0-.073 1.274-.073 3.987 0 2.193.024 3.987.053 3.986.029 0 1.748-1.002 3.82-2.225zm-6.886-4.866c1.594-.716 2.937-1.302 2.985-1.302.047 0 1.45.586 3.118 1.302 1.667.716 3.087 1.318 3.154 1.338.115.032.123-.11.123-2.282v-2.317H11.355v4.822l.298-.13c.163-.07 1.601-.715 3.195-1.431zm7.28-4.94V8.036h-8.464v2.938l.647.01 3.83.056c1.75.026 3.364.053 3.586.06l.402.014zM19.61 6.567v-.98h-3.428v1.96h3.428z"/><path style="display:inline;fill:#fff;fill-opacity:1;stroke-width:.107968" d="M11.52 21.535c-1.528-.578-2.395-.762-3.937-.834l-1.453-.068-.212-.756c-.175-.624-.213-1.115-.22-2.807-.008-1.83.02-2.157.248-3.023.95-3.608 3.298-6.471 6.64-8.099 1.658-.808 2.971-1.137 4.83-1.211 1.797-.072 2.89.071 4.415.577 4.394 1.46 7.5 5.008 8.363 9.554.313 1.65.173 4.012-.328 5.52l-.171.515h-1.422c-1.915.002-3.823.312-4.742.773-.222.111-.405.178-.405.147 0-.03.428-.65.95-1.378 1.797-2.504 2.412-3.427 2.35-3.526-.034-.055-.426-.3-.87-.544l-.81-.444v-2.367c0-1.41-.042-2.392-.105-2.43-.057-.036-.584-.094-1.17-.13l-1.066-.065.01-1.685.01-1.685-1.215-.031-1.215-.03v-2.37h-4.211v2.376H14.6c-1.183 0-1.186 0-1.255.276-.039.153-.035.906.007 1.674l.078 1.397h-1.122c-.729 0-1.167.045-1.252.13-.092.092-.13.782-.13 2.421 0 1.261-.043 2.41-.097 2.551-.068.178-.335.364-.864.6-.421.189-.766.37-.766.402 0 .095 1.03 1.6 2.234 3.262.612.847 1.113 1.563 1.113 1.593 0 .09-.128.054-1.025-.286z"/><circle style="display:inline;fill:#fff;stroke-width:.0292427" cx="17.986" cy="16.094" r="14.016"/><path style="display:inline;fill:#1795b8;fill-opacity:1;stroke-width:.0309449" d="M17.576 29.526c-1.483-.072-2.644-.28-3.937-.71a13.428 13.428 0 0 1-4.201-2.292c-.482-.39-.648-.537-.628-.557.007-.007.165-.035.351-.062.408-.06 1.537-.07 1.947-.019.153.02.418.051.588.07.607.068 1.742.394 2.491.717.196.085.53.227.743.316.815.343 1.194.52 1.345.627.415.296 1.063.847 1.343 1.142l.31.328.242-.217c.133-.12.457-.387.72-.594.264-.207.647-.512.852-.678.566-.462.904-.68 1.55-1.003 1.118-.559 1.518-.696 2.426-.831.42-.063.593-.072 1.377-.07.642.001 1.012.016 1.3.052.221.028.503.06.627.071.123.012.23.03.238.043.022.035-.546.524-1.05.905-.722.544-1.32.909-2.198 1.341-1.342.66-2.494 1.027-3.992 1.268-.647.104-1.868.18-2.444.153zm1.516-2.025a99.815 99.815 0 0 1 1.305-1.816l.258-.346.673-.455c.84-.568 1.012-.659 1.822-.97.802-.306 2.17-.664 3.09-.808.945-.147 2.584-.207 2.955-.107.094.025.217.046.274.046.13 0 .13 0-.154.425a14.408 14.408 0 0 1-1.11 1.44c-.487.554-.446.525-.683.487a18.22 18.22 0 0 0-.586-.076l-.634-.075c-.46-.056-1.613-.077-2.027-.036-.87.084-1.449.197-1.95.379-.361.131-1.478.661-1.834.87-.35.207-.82.552-1.171.862-.141.124-.244.205-.228.18zm-3.048-.62c-.094-.05-.372-.183-.62-.296a30.779 30.779 0 0 1-.664-.311 13.938 13.938 0 0 0-1.44-.575c-.67-.205-1.093-.297-1.887-.41a13.596 13.596 0 0 1-.526-.084c-.21-.041-2.077-.04-2.538 0l-.325.03-.12-.128c-.374-.395-1.289-1.576-1.25-1.614a1.79 1.79 0 0 1 .274-.06c.194-.035.511-.047 1.23-.047.985 0 1.3.025 2.357.188 1.074.166 2.413.655 3.726 1.361.586.316.845.487.966.638.09.11.931 1.28.982 1.363.03.05.037.051-.165-.056zm-1.934-2.57a15.524 15.524 0 0 0-1.743-.758 9.74 9.74 0 0 0-1.97-.491c-1.196-.17-1.218-.172-2.252-.17-.903.003-1.033.01-1.37.073a2.809 2.809 0 0 1-.403.059c-.092-.032-.937-1.728-1.051-2.11l-.022-.074.692.017c1.005.024 2.374.19 3.805.458.372.07.63.143 1.13.322 1.123.403 1.537.589 2.024.91.226.148.25.177.838.998.659.921.662.926.625.92a3.906 3.906 0 0 1-.303-.154zm7.506-.345c.088-.124.223-.322.301-.441.243-.371 1.159-1.234 1.662-1.567a4.373 4.373 0 0 1 1.547-.598c.068-.011.326-.07.573-.13.497-.12 1.479-.272 2.07-.32a12.404 12.404 0 0 1 2.123.032c.574.067.696.088.696.12 0 .047-.355.841-.499 1.117-.243.464-.208.44-.538.388a9.058 9.058 0 0 1-.443-.08c-.331-.073-2.124.004-2.852.122a21.96 21.96 0 0 0-1.793.39c-1.166.291-2.266.714-2.793 1.072-.097.065-.185.12-.195.12-.01 0 .054-.102.141-.225zm-9.595-2.44c-.247-.12-.706-.306-1.021-.413a26.703 26.703 0 0 1-.728-.257 15.78 15.78 0 0 0-1.312-.4 26.228 26.228 0 0 0-1.225-.245c-.428-.069-1.141-.086-1.826-.043-.34.021-.667.04-.727.042-.108.004-.109.002-.179-.213-.229-.702-.412-1.581-.52-2.49-.068-.562-.077-2.085-.017-2.662.085-.82.226-1.591.42-2.296a13.702 13.702 0 0 1 2.812-5.265 13.667 13.667 0 0 1 12.6-4.504 14.008 14.008 0 0 1 4.45 1.579 13.634 13.634 0 0 1 4.61 4.313c1.006 1.532 1.71 3.284 2.004 4.993l.145.84c.041.236.052.525.054 1.485.002 1.183-.022 1.559-.137 2.135a22.8 22.8 0 0 0-.078.433c-.096.562-.147.754-.409 1.548a3.012 3.012 0 0 1-.127.346c-.012.011-.153 0-.315-.024-.426-.067-.581-.07-1.766-.042-.984.024-1.13.035-1.84.137-1.081.156-2.341.465-2.762.678-.114.058-.679.363-.862.473-.183.11 2.746-4.773 2.746-4.78.486-1.013-.698-1.479-1.378-2.158l-.05-5.208-2.132-.02-.044-3.807H19.83l-.024-2.33-3.819-.013-.002 2.346-2.593.003-.026 3.725-2.329.035-.05 5.22c-1.007.852-1.84 1.707-1.374 2.388 2.065 2.89 2.888 4.672 2.866 4.67-.005 0-.211-.099-.458-.218z"/><path style="display:inline;fill:#ce4d5a;fill-opacity:1;stroke:#000;stroke-width:.0295838px;stroke-linecap:butt;stroke-linejoin:miter;stroke-opacity:1" d="m19.55 3.632-3.317-.012v2.05l3.328.032zm-5.867 2.452 8.425.006-.004 3.445-8.412-.113z"/><path style="display:inline;fill:#392c35;fill-opacity:1;stroke:#000;stroke-width:.0295838px;stroke-linecap:butt;stroke-linejoin:miter;stroke-opacity:1" d="m10.119 16.29 7.655-2.452-.076 6.475z"/><path style="display:inline;fill:#000;fill-opacity:1;stroke:#000;stroke-width:.0295838px;stroke-linecap:butt;stroke-linejoin:miter;stroke-opacity:1" d="m17.928 20.3.008-6.455 7.56 2.529z"/><path style="display:inline;fill:gray;fill-opacity:1;stroke:#000;stroke-width:.0295838px;stroke-linecap:butt;stroke-linejoin:miter;stroke-opacity:1" d="m10.154 16.633 7.58 11.664-.04-7.471z"/><path style="display:inline;fill:#333;fill-opacity:1;stroke:#000;stroke-width:.0295838px;stroke-linecap:butt;stroke-linejoin:miter;stroke-opacity:1" d="m17.924 20.824.058 7.539 7.5-11.503z"/><path style="display:inline;fill:#ce4d5a;fill-opacity:1;stroke:#000;stroke-width:.0295838px;stroke-linecap:butt;stroke-linejoin:miter;stroke-opacity:1" d="m17.67 9.809-6.265.017-.003 5.6 6.45-2.145 6.346 2.138-.005-5.572z"/></svg>