<?xml version="1.0" encoding="UTF-8" standalone="no"?>
<svg fill="none" viewBox="0 0 143 32" version="1.1" id="svg8" sodipodi:docname="crowdtainer_mark_white_text.svg" inkscape:version="1.2-dev (9ee32be, 2021-06-19)" xmlns:inkscape="http://www.inkscape.org/namespaces/inkscape" xmlns:sodipodi="http://sodipodi.sourceforge.net/DTD/sodipodi-0.dtd" xmlns="http://www.w3.org/2000/svg" xmlns:svg="http://www.w3.org/2000/svg">
  <defs id="defs12" />
  <sodipodi:namedview id="namedview10" pagecolor="#ffffff" bordercolor="#666666" borderopacity="1.0" inkscape:pageshadow="2" inkscape:pageopacity="0.0" inkscape:pagecheckerboard="0" showgrid="false" inkscape:zoom="3.3520546" inkscape:cx="83.530858" inkscape:cy="-40.124644" inkscape:window-width="1252" inkscape:window-height="1387" inkscape:window-x="1308" inkscape:window-y="25" inkscape:window-maximized="0" inkscape:current-layer="svg8" />
  <text xml:space="preserve" style="font-style:normal;font-variant:normal;font-weight:normal;font-stretch:normal;font-size:18.8019px;line-height:1.05;font-family:Arial;-inkscape-font-specification:Arial;fill:#ff5555;fill-opacity:1;stroke:none;stroke-width:1.28194" x="38.567738" y="22.530674" id="text1809"><tspan sodipodi:role="line" id="tspan1807" x="38.567738" y="22.530674" style="font-style:normal;font-variant:normal;font-weight:normal;font-stretch:normal;font-size:18.8019px;font-family:Arial;-inkscape-font-specification:Arial;fill:#ff5555;stroke-width:1.28194" rotate="0 0 0 0 0 0 0 0 0 0 0 0">Crowdtainer</tspan></text>
  <path style="display:inline;fill:#ffffff;fill-opacity:1;stroke-width:0.0699569" d="m 16.166326,29.924142 c -5.441623,-0.700838 -9.957733,-4.884234 -11.0748287,-10.258905 -0.8798642,-4.233299 0.3407155,-8.517302 3.3181287,-11.6460625 1.874219,-1.969484 4.277232,-3.291291 6.97217,-3.835119 1.076604,-0.21726 3.191785,-0.269085 4.268383,-0.10459 2.048187,0.312951 3.748312,0.968805 5.451819,2.103141 3.589081,2.389905 5.771453,6.4767175 5.771453,10.8078755 0,6.467852 -4.775097,11.968327 -11.2021,12.903782 -0.806527,0.117389 -2.700202,0.133534 -3.505025,0.0299 z m 1.622012,-4.661246 -0.0035,-3.130574 -3.713029,-2.189365 c -2.042163,-1.204148 -3.729453,-2.172939 -3.749525,-2.152865 -0.02003,0.02009 -0.0056,0.0766 0.03232,0.12563 0.03787,0.04905 1.713164,2.426573 3.722904,5.283448 2.009742,2.856867 3.667469,5.194309 3.683838,5.194309 0.0164,0 0.02834,-1.408764 0.02662,-3.130583 z m 3.726221,-1.785538 c 4.326189,-6.11056 4.000669,-5.642247 3.954211,-5.688701 -0.02161,-0.02161 -1.718463,0.94745 -3.770822,2.15343 l -3.731567,2.19269 -0.01824,3.129354 c -0.01,1.721139 0.0056,3.128607 0.03498,3.127709 0.02923,-6.87e-4 1.61839,-2.212416 3.531409,-4.914482 z m -3.754996,-9.830101 c -0.03739,-0.0374 -7.521245,3.428894 -7.520223,3.48314 3.72e-4,0.01921 1.691876,1.035309 3.758917,2.257941 l 3.758255,2.22296 0.01804,-3.965476 c 0.0098,-2.181015 0.0035,-3.980364 -0.01503,-3.998565 z m 3.974635,5.733314 c 2.072303,-1.223371 3.772258,-2.246828 3.777683,-2.274345 0.01041,-0.05267 -7.452381,-3.473685 -7.577723,-3.473685 -0.04946,0 -0.07271,1.274943 -0.07271,3.987553 0,2.193151 0.0236,3.986929 0.05247,3.986175 0.02887,-6.86e-4 1.747984,-1.002326 3.820287,-2.225698 z m -6.886345,-4.865655 c 1.59378,-0.716165 2.936882,-1.302116 2.98468,-1.302116 0.04782,0 1.451127,0.586075 3.118521,1.302392 1.6674,0.716308 3.086724,1.318116 3.154052,1.33734 0.114832,0.03279 0.122426,-0.108687 0.122426,-2.281791 v -2.316743 h -6.436046 -6.436047 v 2.411035 2.411035 l 0.297322,-0.129514 c 0.163521,-0.07124 1.601312,-0.715465 3.195092,-1.431638 z m 7.280972,-4.939885 v -1.5390625 h -4.232401 -4.232399 v 1.4691055 1.469095 l 0.647101,0.0097 c 0.355905,0.0056 2.07947,0.03074 3.830144,0.05647 1.750675,0.02566 3.364062,0.05276 3.585299,0.06024 l 0.402256,0.01351 z m -2.518458,-3.0081585 v -0.979397 h -1.713943 -1.713948 v 0.979397 0.979397 h 1.713948 1.713943 z" id="path37132" inkscape:export-filename="/Users/thiagoalencar/Downloads/CrowdtainerLogo.png" inkscape:export-xdpi="96" inkscape:export-ydpi="96" />
  <path style="display:inline;fill:#ffffff;fill-opacity:1;stroke-width:0.107968" d="m 11.51979,21.535179 c -1.5274635,-0.578186 -2.3945064,-0.761932 -3.9363305,-0.83422 l -1.4530691,-0.06813 -0.2120938,-0.755778 c -0.1749997,-0.623589 -0.2135559,-1.114557 -0.2204364,-2.807162 -0.00746,-1.829646 0.019351,-2.156433 0.2476928,-3.023105 0.9505975,-3.607746 3.297993,-6.4708525 6.640043,-8.0988185 1.658104,-0.807692 2.971556,-1.136964 4.830728,-1.211016 1.79659,-0.07156 2.890128,0.07151 4.41441,0.577541 4.394555,1.458936 7.500893,5.0074235 8.363318,9.5537395 0.313135,1.650708 0.172872,4.01169 -0.327901,5.519355 l -0.171108,0.515164 -1.421895,6.87e-4 c -1.914703,0.0015 -3.823416,0.311983 -4.741918,0.772353 -0.22268,0.111619 -0.404883,0.178025 -0.404883,0.147591 0,-0.03045 0.427343,-0.650894 0.949643,-1.378783 1.796538,-2.50372 2.41155,-3.426498 2.350032,-3.526039 -0.03389,-0.05488 -0.425821,-0.299633 -0.870906,-0.54391 l -0.809249,-0.444138 v -2.366132 c 0,-1.410762 -0.04226,-2.392252 -0.104635,-2.430808 -0.05757,-0.0356 -0.584291,-0.09389 -1.170546,-0.129608 l -1.06591,-0.06498 0.0098,-1.6852325 0.0098,-1.685232 -1.214639,-0.03053 -1.21464,-0.03053 v -1.184116 -1.184109 h -2.105377 -2.105376 v 1.187649 1.187649 h -1.185591 c -1.1826,0 -1.185763,6.86e-4 -1.255096,0.276939 -0.03822,0.152317 -0.03478,0.9054 0.0078,1.6735085 l 0.07724,1.396559 h -1.121856 c -0.728604,0 -1.167281,0.04541 -1.251425,0.129562 -0.09263,0.09264 -0.129561,0.783007 -0.129561,2.422251 0,1.260982 -0.04418,2.408841 -0.09813,2.550792 -0.06778,0.178271 -0.334888,0.363958 -0.8637395,0.60042 -0.421087,0.188289 -0.765616,0.369017 -0.765616,0.401624 0,0.09507 1.0295475,1.598952 2.2331715,3.262051 0.612606,0.84646 1.11383,1.563098 1.11383,1.592532 0,0.08963 -0.128478,0.05385 -1.025692,-0.285777 z" id="path37727" inkscape:export-filename="/Users/thiagoalencar/Downloads/CrowdtainerLogo.png" inkscape:export-xdpi="96" inkscape:export-ydpi="96" />
  <circle style="display:inline;fill:#ffffff;stroke-width:0.0292427" id="path1799" cx="17.985744" cy="16.093691" r="14.016234" inkscape:export-filename="/Users/thiagoalencar/Downloads/CrowdtainerLogo.png" inkscape:export-xdpi="96" inkscape:export-ydpi="96" />
  <path style="display:inline;fill:#1795b8;fill-opacity:1;stroke-width:0.0309449" d="m 17.575509,29.525523 c -1.482289,-0.07122 -2.643731,-0.280436 -3.936641,-0.709153 -1.525579,-0.505863 -2.964852,-1.291093 -4.201305,-2.292122 -0.4820148,-0.390233 -0.6474574,-0.537049 -0.6275966,-0.55691 0.00735,-0.0074 0.1653123,-0.03554 0.3510881,-0.0627 0.4080525,-0.05963 1.5364605,-0.0702 1.9469255,-0.01824 0.153175,0.01942 0.417758,0.05077 0.587955,0.06971 0.606841,0.06758 1.741691,0.394282 2.491084,0.717167 0.195725,0.08432 0.529928,0.226534 0.74268,0.316009 0.815142,0.342802 1.194565,0.519604 1.344949,0.626705 0.415659,0.296012 1.063533,0.846762 1.343033,1.141711 l 0.311153,0.328338 0.241094,-0.217053 c 0.132608,-0.119377 0.456939,-0.386502 0.720747,-0.593616 0.263803,-0.207113 0.646751,-0.512593 0.850989,-0.678843 0.566454,-0.461105 0.904488,-0.679635 1.55123,-1.002813 1.117438,-0.558387 1.517545,-0.695495 2.425216,-0.831045 0.419371,-0.06264 0.592428,-0.07143 1.377056,-0.07005 0.642051,0.0015 1.011881,0.01613 1.299695,0.05262 0.22126,0.02806 0.503296,0.0601 0.626758,0.0712 0.123464,0.01108 0.23068,0.03019 0.238253,0.04246 0.02181,0.03534 -0.545844,0.524268 -1.050685,0.904959 -0.721591,0.544144 -1.319502,0.909112 -2.197103,1.341113 -1.342285,0.660753 -2.49437,1.026619 -3.991916,1.267727 -0.646929,0.104154 -1.868311,0.180493 -2.444659,0.152804 z m 1.516098,-2.02462 c 0.0531,-0.08751 1.047469,-1.470901 1.305047,-1.815692 l 0.258676,-0.346258 0.672662,-0.454703 c 0.840384,-0.568074 1.011725,-0.65925 1.821557,-0.969326 0.802533,-0.307276 2.170663,-0.665233 3.090586,-0.808611 0.94517,-0.147317 2.583627,-0.206832 2.955254,-0.107332 0.09361,0.02504 0.216946,0.04576 0.274087,0.04589 0.129938,4.32e-4 0.130212,-2.26e-4 -0.154075,0.424893 -0.317279,0.474538 -0.723499,1.001776 -1.109796,1.440434 -0.487867,0.554001 -0.446457,0.524509 -0.68357,0.486864 -0.109347,-0.01736 -0.372885,-0.05166 -0.585637,-0.07614 -0.212746,-0.02449 -0.498213,-0.05817 -0.634374,-0.07472 -0.459643,-0.05599 -1.612811,-0.07672 -2.0269,-0.03649 -0.87067,0.0846 -1.449008,0.196993 -1.949546,0.378859 -0.36201,0.131529 -1.478359,0.661755 -1.834235,0.871199 -0.349901,0.205934 -0.81965,0.551314 -1.171444,0.861314 -0.140917,0.12417 -0.243645,0.205076 -0.228292,0.179802 z m -3.047886,-0.620654 c -0.09361,-0.04974 -0.372115,-0.182428 -0.618903,-0.294804 -0.246787,-0.112388 -0.546181,-0.252558 -0.665314,-0.311503 -0.324223,-0.160414 -1.105605,-0.472472 -1.438951,-0.574659 -0.67029,-0.205488 -1.09388,-0.297584 -1.887652,-0.41042 -0.195724,-0.02779 -0.432454,-0.06565 -0.526065,-0.08403 -0.20913,-0.04109 -2.0764725,-0.04041 -2.5374944,6.86e-4 l -0.3249286,0.02915 -0.1208766,-0.127791 c -0.3733713,-0.394715 -1.2882995,-1.575868 -1.2501961,-1.613971 0.00778,-0.0078 0.1314611,-0.03484 0.2748466,-0.06024 0.1934468,-0.03423 0.5108431,-0.04623 1.2301772,-0.04666 0.9850164,-5.36e-4 1.3002389,0.02456 2.3571319,0.187979 1.073968,0.166059 2.412988,0.655407 3.725039,1.361337 0.586921,0.315776 0.845618,0.486295 0.966692,0.637187 0.08921,0.111193 0.930949,1.280032 0.982183,1.363875 0.02983,0.04878 0.03616,0.05099 -0.165689,-0.05634 z m -1.934068,-2.569116 c -0.416196,-0.22331 -1.208067,-0.567812 -1.74223,-0.757953 -0.684592,-0.243678 -1.292814,-0.395344 -1.971182,-0.491529 -1.195655,-0.169532 -1.2175675,-0.171186 -2.251013,-0.169106 -0.9036155,0.002 -1.0334105,0.0087 -1.369563,0.07236 -0.2042387,0.03869 -0.3857266,0.06531 -0.403317,0.05914 -0.092511,-0.03244 -0.937501,-1.728527 -1.0513446,-2.110316 l -0.021955,-0.07367 0.6918998,0.01688 c 1.0050347,0.02456 2.3741659,0.189337 3.8048633,0.457934 0.3723095,0.0699 0.6304975,0.143618 1.1294985,0.322507 1.123947,0.40292 1.537393,0.588498 2.024566,0.908734 0.225753,0.148393 0.250897,0.178367 0.838084,0.999114 0.658797,0.92085 0.661884,0.925392 0.625256,0.919416 -0.01379,-0.002 -0.150362,-0.07134 -0.303544,-0.153525 z m 7.506641,-0.345249 c 0.08734,-0.123393 0.222678,-0.321829 0.300773,-0.440968 0.243391,-0.371307 1.158923,-1.234322 1.661789,-1.566461 0.414587,-0.273838 1.02814,-0.511166 1.547251,-0.5985 0.06806,-0.01145 0.325697,-0.06966 0.572484,-0.129349 0.496937,-0.120196 1.47899,-0.272123 2.070079,-0.320257 0.631281,-0.05139 1.531941,-0.03822 2.122982,0.03116 0.574481,0.06737 0.69627,0.08854 0.69627,0.120876 0,0.04706 -0.354669,0.840973 -0.498769,1.116416 -0.242814,0.464143 -0.208518,0.439383 -0.537893,0.388355 -0.153175,-0.02375 -0.352735,-0.05955 -0.443459,-0.0796 -0.331254,-0.07319 -2.124271,0.0035 -2.852195,0.121712 -0.471272,0.07665 -1.02854,0.197583 -1.792605,0.389019 -1.166266,0.292206 -2.26601,0.714389 -2.793304,1.072311 -0.09694,0.06579 -0.18433,0.11963 -0.194216,0.11963 -0.0098,0 0.05344,-0.100965 0.140813,-0.224354 z m -9.595437,-2.439561 c -0.246787,-0.119895 -0.706321,-0.305987 -1.021186,-0.413525 -0.314862,-0.107545 -0.642111,-0.223181 -0.727208,-0.256976 -0.224861,-0.0893 -1.075493,-0.348399 -1.3128268,-0.399888 -0.5652815,-0.122632 -0.9731472,-0.204094 -1.2246682,-0.244606 -0.4283519,-0.06899 -1.1412101,-0.08596 -1.8257616,-0.04342 -0.3403999,0.02114 -0.6676408,0.04013 -0.7272114,0.04219 -0.1075194,0.0035 -0.1088287,0.002 -0.1788537,-0.212889 -0.2287314,-0.702328 -0.412525,-1.581341 -0.5208528,-2.491084 -0.066817,-0.561323 -0.076163,-2.084419 -0.01626,-2.66128 0.085077,-0.819698 0.2261435,-1.591248 0.4198173,-2.296189 0.5267586,-1.917276 1.5258054,-3.7877965 2.8120466,-5.2650035 3.1319456,-3.596934 7.8878786,-5.296785 12.6008106,-4.503733 0.401616,0.06758 0.482735,0.08444 0.974768,0.202605 1.153298,0.276974 2.424474,0.780215 3.475571,1.37593 1.832431,1.038535 3.458022,2.559833 4.609044,4.313341 1.005803,1.5322765 1.709001,3.2842945 2.004039,4.9930575 0.0518,0.300086 0.117172,0.677911 0.145238,0.839599 0.04108,0.236867 0.05146,0.525436 0.05318,1.485364 0.002,1.183285 -0.02181,1.558802 -0.136222,2.135212 -0.01523,0.07659 -0.05037,0.27154 -0.07813,0.43323 -0.09651,0.561879 -0.147145,0.753569 -0.408751,1.547258 -0.05886,0.178704 -0.116375,0.334513 -0.12773,0.346245 -0.01132,0.01169 -0.15292,6.84e-4 -0.314609,-0.02422 -0.426157,-0.06607 -0.581433,-0.06969 -1.765704,-0.04108 -0.984174,0.02375 -1.130982,0.03464 -1.841234,0.136813 -1.08033,0.155378 -2.340337,0.464857 -2.760964,0.678138 -0.114362,0.05797 -0.678836,0.362725 -0.861801,0.473042 -0.182964,0.110309 2.745733,-4.773662 2.745733,-4.78129 0.48579,-1.011774 -0.69806,-1.477666 -1.37794,-2.15725 l -0.04925,-5.207827 -2.132785,-0.02058 -0.04404,-3.8060255 -2.577141,-2.88e-4 -0.02387,-2.330472 -3.819044,-0.01255 -0.002,2.345908 -2.593414,0.0034 -0.02566,3.7244465 -2.328913,0.03471 -0.04974,5.220861 c -1.0069875,0.851248 -1.8400434,1.706702 -1.374028,2.387558 2.064487,2.890757 2.887938,4.671582 2.86599,4.670149 -0.0056,-3.21e-4 -0.211475,-0.09871 -0.458263,-0.218625 z" id="path211" sodipodi:nodetypes="ssssssssssscssssscssssssssscssssccsssssssssssssssscssscssssssssssssscssssssssssssssssssssssscsssssssssssssssssssssscssssccccccccccccccccc" inkscape:export-filename="/Users/thiagoalencar/Downloads/CrowdtainerLogo.png" inkscape:export-xdpi="96" inkscape:export-ydpi="96" />
  <path style="display:inline;fill:#ce4d5a;fill-opacity:1;stroke:#000000;stroke-width:0.0295838px;stroke-linecap:butt;stroke-linejoin:miter;stroke-opacity:1" d="m 19.549583,3.6318435 -3.316249,-0.01207 v 2.05004 l 3.327452,0.03176 z" id="path1940" sodipodi:nodetypes="ccccc" inkscape:export-filename="/Users/thiagoalencar/Downloads/CrowdtainerLogo.png" inkscape:export-xdpi="96" inkscape:export-ydpi="96" />
  <path style="display:inline;fill:#ce4d5a;fill-opacity:1;stroke:#000000;stroke-width:0.0295838px;stroke-linecap:butt;stroke-linejoin:miter;stroke-opacity:1" d="m 13.683172,6.0838215 8.424857,0.0062 -0.0041,3.4449825 -8.411898,-0.113386 z" id="path1944" sodipodi:nodetypes="ccccc" inkscape:export-filename="/Users/thiagoalencar/Downloads/CrowdtainerLogo.png" inkscape:export-xdpi="96" inkscape:export-ydpi="96" />
  <path style="display:inline;fill:#392c35;fill-opacity:1;stroke:#000000;stroke-width:0.0295838px;stroke-linecap:butt;stroke-linejoin:miter;stroke-opacity:1" d="m 10.118629,16.289877 7.655377,-2.451505 -0.07552,6.474512 z" id="path1952" sodipodi:nodetypes="cccc" inkscape:export-filename="/Users/thiagoalencar/Downloads/CrowdtainerLogo.png" inkscape:export-xdpi="96" inkscape:export-ydpi="96" />
  <path style="display:inline;fill:#000000;fill-opacity:1;stroke:#000000;stroke-width:0.0295838px;stroke-linecap:butt;stroke-linejoin:miter;stroke-opacity:1" d="m 17.927743,20.299912 0.0083,-6.45457 7.560229,2.528598 z" id="path1954" sodipodi:nodetypes="cccc" inkscape:export-filename="/Users/thiagoalencar/Downloads/CrowdtainerLogo.png" inkscape:export-xdpi="96" inkscape:export-ydpi="96" />
  <path style="display:inline;fill:#808080;fill-opacity:1;stroke:#000000;stroke-width:0.0295838px;stroke-linecap:butt;stroke-linejoin:miter;stroke-opacity:1" d="m 10.154489,16.633173 7.5788,11.664224 -0.03878,-7.471769 z" id="path1956" sodipodi:nodetypes="cccc" inkscape:export-filename="/Users/thiagoalencar/Downloads/CrowdtainerLogo.png" inkscape:export-xdpi="96" inkscape:export-ydpi="96" />
  <path style="display:inline;fill:#333333;fill-opacity:1;stroke:#000000;stroke-width:0.0295838px;stroke-linecap:butt;stroke-linejoin:miter;stroke-opacity:1" d="m 17.923991,20.823645 0.05805,7.539359 7.49915,-11.503277 z" id="path1958" sodipodi:nodetypes="cccc" inkscape:export-filename="/Users/thiagoalencar/Downloads/CrowdtainerLogo.png" inkscape:export-xdpi="96" inkscape:export-ydpi="96" />
  <path style="display:inline;fill:#ce4d5a;fill-opacity:1;stroke:#000000;stroke-width:0.0295838px;stroke-linecap:butt;stroke-linejoin:miter;stroke-opacity:1" d="m 17.669945,9.8087415 -6.264815,0.01694 -0.0027,5.5995355 6.449178,-2.144606 6.346627,2.138705 -0.0056,-5.5721405 z" id="path30774" sodipodi:nodetypes="ccccccc" inkscape:export-filename="/Users/thiagoalencar/Downloads/CrowdtainerLogo.png" inkscape:export-xdpi="96" inkscape:export-ydpi="96" />
</svg>
