<svg width="202.384" height="215.445" viewBox="0 0 53.547 57.003" xmlns="http://www.w3.org/2000/svg"><path style="fill:#000;stroke-width:.143883" d="M67.518 220.624c0-.075-.266-.184-.591-.242-1.898-.341-4.216-2.698-4.63-4.707-.046-.225-.145-.408-.22-.408-.09 0-.137-8.067-.137-23.01 0-14.942.048-23.008.137-23.008.075 0 .174-.184.22-.409.414-2.008 2.732-4.366 4.63-4.707.325-.058.591-.167.591-.242 0-.08 4.39-.135 10.808-.135 7.113 0 10.808.05 10.808.149 0 .081.09.148.199.148.284 0 1.03.704 1.27 1.198.492 1.012.071 2.349-.931 2.96l-.607.37-10.53.037c-11.747.042-11.118-.015-11.758 1.076l-.305.52v44.088l.305.52c.64 1.09.011 1.033 11.759 1.075l10.529.038.607.37c1.002.61 1.423 1.947.932 2.96-.24.493-.987 1.197-1.271 1.197-.11 0-.199.067-.199.149 0 .097-3.695.148-10.808.148-6.418 0-10.808-.055-10.808-.135zm30.86-12.446c-.35-.344-.633-.796-.742-1.182-.335-1.195-.172-1.424 4.573-6.455 2.359-2.5 4.485-4.718 4.725-4.929.24-.21.47-.516.51-.68.073-.298.03-.3-12.516-.3-6.923 0-12.881-.042-13.24-.094-.476-.07-.806-.243-1.233-.646l-.582-.55v-2.169l.582-.55c.427-.403.757-.576 1.234-.646.358-.052 6.316-.095 13.24-.095 12.544 0 12.588 0 12.515-.298-.04-.164-.27-.47-.51-.681-.24-.21-2.366-2.428-4.725-4.929-4.745-5.03-4.908-5.26-4.573-6.455.109-.386.392-.838.742-1.182.515-.508.635-.557 1.358-.557.662 0 .882.072 1.336.439.537.432 13.908 14.54 14.246 15.031.226.327.226 1.688 0 2.015-.413.598-13.89 14.772-14.362 15.104-.39.275-.706.366-1.266.366-.67 0-.806-.058-1.312-.557z" transform="translate(-61.94 -163.756)"/></svg>