<?xml version="1.0" encoding="UTF-8" standalone="no"?>
<!-- Created with Inkscape (http://www.inkscape.org/) -->

<svg width="53.547424mm" height="57.003029mm" viewBox="0 0 53.547424 57.003029" version="1.1" id="svg5" inkscape:version="1.2-dev (9ee32be, 2021-06-19)" sodipodi:docname="Exit.svg" xmlns:inkscape="http://www.inkscape.org/namespaces/inkscape" xmlns:sodipodi="http://sodipodi.sourceforge.net/DTD/sodipodi-0.dtd" xmlns="http://www.w3.org/2000/svg" xmlns:svg="http://www.w3.org/2000/svg">
  <sodipodi:namedview id="namedview7" pagecolor="#ffffff" bordercolor="#666666" borderopacity="1.0" inkscape:pageshadow="2" inkscape:pageopacity="0.0" inkscape:pagecheckerboard="0" inkscape:document-units="mm" showgrid="false" inkscape:zoom="0.69041105" inkscape:cx="-216.53767" inkscape:cy="-39.831344" inkscape:window-width="2560" inkscape:window-height="1387" inkscape:window-x="0" inkscape:window-y="25" inkscape:window-maximized="0" inkscape:current-layer="layer1" />
  <defs id="defs2" />
  <g inkscape:label="Layer 1" inkscape:groupmode="layer" id="layer1" transform="translate(-61.939783,-163.75606)">
    <path style="fill:#000000;stroke-width:0.143883" d="m 67.518179,220.62368 c 0,-0.0745 -0.266056,-0.18325 -0.591237,-0.24172 -1.897739,-0.34128 -4.216021,-2.69843 -4.629519,-4.70713 -0.04622,-0.22453 -0.145596,-0.40823 -0.220837,-0.40823 -0.08884,0 -0.136803,-8.06657 -0.136803,-23.00903 0,-14.94247 0.04796,-23.00903 0.136803,-23.00903 0.07524,0 0.174618,-0.1837 0.220837,-0.40823 0.413498,-2.0087 2.73178,-4.36585 4.629519,-4.70713 0.325181,-0.0585 0.591237,-0.16726 0.591237,-0.24173 0,-0.0804 4.390063,-0.13539 10.808144,-0.13539 7.112456,0 10.808147,0.0508 10.808147,0.14845 0,0.0816 0.08932,0.14844 0.198482,0.14844 0.284077,0 1.030883,0.70393 1.270849,1.19787 0.491612,1.01192 0.07068,2.34879 -0.931965,2.95976 l -0.6071,0.36995 -10.529223,0.0377 c -11.747199,0.0421 -11.118918,-0.0154 -11.758647,1.07564 l -0.304636,0.51956 v 22.04414 22.04413 l 0.304636,0.51956 c 0.639729,1.09107 0.01145,1.03359 11.758647,1.07565 l 10.529223,0.0377 0.6071,0.36994 c 1.002625,0.61097 1.423577,1.94785 0.931965,2.95977 -0.239966,0.49395 -0.986772,1.19787 -1.270849,1.19787 -0.109163,0 -0.198482,0.0668 -0.198482,0.14845 0,0.0977 -3.695691,0.14845 -10.808147,0.14845 -6.418081,0 -10.808144,-0.055 -10.808144,-0.1354 z m 30.859396,-12.44534 c -0.349376,-0.34393 -0.632654,-0.79593 -0.741209,-1.18269 -0.335223,-1.19432 -0.172541,-1.42397 4.572624,-6.45473 2.35853,-2.50048 4.48468,-4.71836 4.72478,-4.92862 0.2401,-0.21027 0.46956,-0.5167 0.50992,-0.68095 0.0731,-0.29761 0.0294,-0.29866 -12.51523,-0.29866 -6.923726,0 -12.881588,-0.0427 -13.239684,-0.095 -0.476776,-0.0696 -0.807035,-0.2423 -1.233587,-0.64522 l -0.582501,-0.55023 v -1.08468 -1.08469 l 0.582501,-0.55023 c 0.426552,-0.40292 0.756811,-0.57566 1.233587,-0.64521 0.358096,-0.0523 6.315958,-0.095 13.239684,-0.095 12.54466,0 12.58835,-8.4e-4 12.51523,-0.29864 -0.0403,-0.16426 -0.26982,-0.47069 -0.50992,-0.68096 -0.2401,-0.21027 -2.36625,-2.42815 -4.72478,-4.92863 -4.745165,-5.03076 -4.907847,-5.2604 -4.572624,-6.45473 0.108555,-0.38676 0.391833,-0.83875 0.741209,-1.18268 0.515401,-0.50736 0.635705,-0.55667 1.358127,-0.55667 0.662298,0 0.882048,0.0721 1.336528,0.43861 0.53651,0.43266 13.90761,14.54105 14.24583,15.03135 0.22553,0.32694 0.22553,1.68807 0,2.01476 -0.41281,0.59799 -13.89057,14.77246 -14.3616,15.104 -0.39025,0.27469 -0.7067,0.36615 -1.266797,0.36615 -0.669228,0 -0.805194,-0.0577 -1.312088,-0.55666 z" id="path41" />
  </g>
</svg>
