<?xml version="1.0" encoding="UTF-8" standalone="no"?>
<!-- Created with Inkscape (http://www.inkscape.org/) -->

<svg width="64.899361mm" height="67.733337mm" viewBox="0 0 64.899361 67.733337" version="1.1" id="svg5" inkscape:version="1.2-dev (9ee32be, 2021-06-19)" sodipodi:docname="Transfer.svg" xmlns:inkscape="http://www.inkscape.org/namespaces/inkscape" xmlns:sodipodi="http://sodipodi.sourceforge.net/DTD/sodipodi-0.dtd" xmlns="http://www.w3.org/2000/svg" xmlns:svg="http://www.w3.org/2000/svg">
  <sodipodi:namedview id="namedview7" pagecolor="#ffffff" bordercolor="#666666" borderopacity="1.0" inkscape:pageshadow="2" inkscape:pageopacity="0.0" inkscape:pagecheckerboard="0" inkscape:document-units="mm" showgrid="false" inkscape:zoom="0.69041105" inkscape:cx="-231.02179" inkscape:cy="248.40274" inkscape:window-width="2560" inkscape:window-height="1387" inkscape:window-x="0" inkscape:window-y="25" inkscape:window-maximized="0" inkscape:current-layer="layer1" />
  <defs id="defs2" />
  <g inkscape:label="Layer 1" inkscape:groupmode="layer" id="layer1" transform="translate(-66.029348,-87.433243)">
    <path style="fill:#000000;stroke-width:0.176389" d="m 69.296671,154.67595 c -0.346375,-0.47083 -0.354379,-0.8285 -0.440972,-19.70592 l -0.08819,-19.22639 -0.529167,-0.0453 c -1.22822,-0.10518 -1.812881,-0.38219 -2.01196,-0.95327 -0.260451,-0.74713 -0.263716,-11.53382 -0.0037,-12.27966 0.126384,-0.36254 0.369333,-0.60549 0.731877,-0.73187 0.359875,-0.12545 3.694165,-0.18919 9.897762,-0.18919 h 9.35507 l -2.390502,-1.2063 c -1.314774,-0.663473 -2.879478,-1.582572 -3.477117,-2.042444 -3.139646,-2.415904 -3.878562,-5.730406 -1.890904,-8.4819 0.602845,-0.834512 1.765714,-1.744535 2.445395,-1.913687 0.266788,-0.0664 0.485069,-0.198583 0.485069,-0.293748 0,-0.10097 0.697855,-0.173028 1.675695,-0.173028 0.921632,0 1.675694,0.07307 1.675694,0.162373 0,0.08931 0.257969,0.21344 0.573264,0.275853 0.617707,0.122277 0.979761,0.272626 2.836805,1.178029 0.662864,0.323179 1.287739,0.687044 1.388611,0.808588 0.100873,0.121545 0.257748,0.22099 0.348609,0.22099 0.09086,0 0.815363,0.485457 1.610001,1.078794 1.933051,1.443363 4.768137,4.359738 5.854516,6.022379 0.48507,0.742372 1.001007,1.349767 1.146528,1.349767 0.145521,0 0.661459,-0.607395 1.146528,-1.349767 1.086377,-1.662641 3.921467,-4.579016 5.854517,-6.022379 0.79464,-0.593337 1.51913,-1.078794 1.61,-1.078794 0.0909,0 0.24773,-0.09944 0.34861,-0.22099 0.31961,-0.385105 3.27358,-1.765127 4.22612,-1.974341 0.31491,-0.06916 0.57256,-0.198823 0.57256,-0.288129 0,-0.0893 0.75406,-0.162373 1.67569,-0.162373 0.97784,0 1.6757,0.07206 1.6757,0.173028 0,0.09516 0.21828,0.227352 0.48507,0.293748 0.65888,0.163976 1.83732,1.07156 2.3931,1.843068 1.13224,1.571707 1.4451,3.385627 0.86706,5.027037 -0.76416,2.169896 -2.44034,3.679386 -6.18279,5.567926 l -2.3905,1.2063 h 9.35507 c 6.31563,0 9.53485,0.0627 9.90842,0.1929 0.87973,0.30668 0.93844,0.79237 0.87704,7.25486 -0.0533,5.60995 -0.0653,5.78256 -0.42901,6.14601 -0.24283,0.24269 -0.70723,0.41461 -1.32292,0.48975 l -0.94874,0.11579 -0.0882,19.23073 -0.0882,19.23073 -0.37816,0.48073 -0.37816,0.48073 -28.814201,-0.006 -28.814198,-0.006 -0.352778,-0.47952 z m 27.670075,-2.72849 c 0.0585,-0.21828 0.107443,-8.33834 0.108768,-18.04458 0.0018,-13.49352 -0.04742,-17.69754 -0.209259,-17.85938 -0.160553,-0.16055 -3.160035,-0.21167 -12.42099,-0.21167 -6.715129,0 -12.334879,0.0482 -12.488334,0.10707 -0.251903,0.0967 -0.27901,1.85892 -0.27901,18.13866 0,9.91737 0.05292,18.08451 0.117593,18.14918 0.06468,0.0647 5.73073,0.1176 12.591234,0.1176 h 12.47364 z m 28.290134,-17.76025 c 0.0357,-14.33859 -7e-4,-18.09795 -0.17638,-18.20946 -0.12173,-0.0773 -5.74186,-0.14173 -12.48917,-0.14321 -9.30953,-0.002 -12.31889,0.0483 -12.47952,0.20896 -0.161841,0.16184 -0.2111,4.36586 -0.209258,17.85938 0.0014,9.70624 0.05041,17.82682 0.109078,18.04575 l 0.10666,0.39804 12.54683,-0.0453 12.54683,-0.0453 z m -28.267153,-25.58732 v -4.14514 h -14.022917 -14.022917 l -0.04758,3.96476 c -0.02617,2.18062 -0.0086,4.06625 0.03897,4.1903 0.06947,0.18103 2.846161,0.21663 14.070496,0.18038 l 13.983947,-0.0452 z m 31.044443,0 v -4.14514 h -14.02291 -14.022921 l -0.04758,3.96476 c -0.02617,2.18062 -0.0086,4.06625 0.03897,4.1903 0.06947,0.18103 2.846161,0.21663 14.070501,0.18038 l 13.98394,-0.0452 z m -31.838193,-7.6914 c 0,-0.0587 -0.197725,-0.50033 -0.439388,-0.981478 -1.434525,-2.856073 -6.039078,-7.065396 -9.503583,-8.687843 -1.111483,-0.520514 -2.694305,-0.983724 -3.361456,-0.983724 -0.597573,0 -1.543478,0.435874 -1.976206,0.91064 -1.452817,1.593951 -0.762286,3.648787 1.802853,5.364806 2.079264,1.39098 6.182553,2.936346 10.214586,3.846979 0.679097,0.15337 1.552222,0.35131 1.940278,0.43985 0.873532,0.19932 1.322916,0.23015 1.322916,0.0908 z m 5.851473,-0.0893 c 4.3309,-0.903659 7.49832,-1.892338 10.15096,-3.168531 1.75543,-0.844541 2.74614,-1.502588 3.61108,-2.398554 1.19818,-1.241152 1.3031,-2.934114 0.25323,-4.08597 -0.43273,-0.474766 -1.37863,-0.91064 -1.9762,-0.91064 -0.99365,0 -3.31036,0.855445 -4.92596,1.818909 -2.89802,1.728238 -6.43259,5.179216 -7.90864,7.721589 -0.74838,1.289027 -0.71072,1.337477 0.79553,1.023197 z" id="path21" />
  </g>
</svg>
