<svg width="245.289" height="256"
  viewBox="0 0 64.899 67.733"
  xmlns="http://www.w3.org/2000/svg">
  <path style="fill:#fff;stroke-width:.176389" d="M69.297 154.676c-.347-.47-.355-.829-.441-19.706l-.088-19.226-.53-.046c-1.228-.105-1.813-.382-2.012-.953-.26-.747-.263-11.534-.003-12.28a1.13 1.13 0 0 1 .732-.731c.36-.126 3.694-.19 9.897-.19h9.355l-2.39-1.206c-1.315-.663-2.88-1.583-3.477-2.042-3.14-2.416-3.879-5.73-1.891-8.482.603-.835 1.766-1.745 2.445-1.914.267-.066.485-.199.485-.294 0-.1.698-.173 1.676-.173.922 0 1.676.073 1.676.163 0 .089.258.213.573.275.618.123.98.273 2.837 1.178.663.324 1.288.688 1.388.81.101.12.258.22.349.22.09 0 .815.486 1.61 1.079 1.933 1.443 4.768 4.36 5.855 6.022.485.743 1 1.35 1.146 1.35.146 0 .662-.607 1.147-1.35 1.086-1.662 3.921-4.579 5.854-6.022.795-.593 1.52-1.079 1.61-1.079.091 0 .248-.1.349-.22.32-.386 3.273-1.766 4.226-1.975.315-.07.572-.2.572-.288 0-.09.754-.163 1.676-.163.978 0 1.676.072 1.676.173 0 .095.218.228.485.294.659.164 1.837 1.072 2.393 1.843 1.132 1.572 1.445 3.386.867 5.027-.764 2.17-2.44 3.68-6.183 5.568l-2.39 1.206h9.355c6.315 0 9.535.063 9.908.193.88.307.939.793.877 7.255-.053 5.61-.065 5.783-.429 6.146-.243.243-.707.415-1.323.49l-.948.116-.089 19.23-.088 19.231-.378.48-.378.482-28.814-.006-28.815-.006-.352-.48zm27.67-2.729c.058-.218.107-8.338.109-18.044.001-13.494-.048-17.698-.21-17.86-.16-.16-3.16-.211-12.42-.211-6.716 0-12.336.048-12.49.107-.251.097-.278 1.859-.278 18.139 0 9.917.053 18.084.118 18.149.064.064 5.73.117 12.59.117H96.86zm28.29-17.76c.036-14.338 0-18.098-.177-18.21-.121-.077-5.741-.141-12.489-.142-9.31-.002-12.319.048-12.48.208-.161.162-.21 4.366-.208 17.86.001 9.706.05 17.827.109 18.046l.106.398 12.547-.046 12.547-.045zM96.99 108.6v-4.145H68.944l-.048 3.965c-.026 2.18-.008 4.066.04 4.19.069.18 2.845.216 14.07.18l13.984-.045zm31.044 0v-4.145H99.988l-.047 3.965c-.026 2.18-.009 4.066.039 4.19.07.18 2.846.216 14.07.18l13.984-.045zm-31.838-7.692c0-.058-.198-.5-.44-.981-1.434-2.856-6.038-7.065-9.503-8.688-1.111-.52-2.694-.984-3.361-.984-.598 0-1.544.436-1.977.911-1.452 1.594-.762 3.649 1.803 5.365 2.08 1.39 6.183 2.936 10.215 3.847l1.94.44c.874.199 1.323.23 1.323.09zm5.851-.089c4.331-.903 7.499-1.892 10.151-3.168 1.756-.845 2.747-1.503 3.611-2.399 1.199-1.241 1.304-2.934.254-4.086-.433-.475-1.379-.91-1.976-.91-.994 0-3.31.855-4.926 1.818-2.898 1.729-6.433 5.18-7.91 7.722-.747 1.289-.71 1.337.796 1.023z" transform="translate(-66.03 -87.433)"/>
</svg>