<svg width="196.331"
  height="182.481"
  viewBox="0 0 51.946 48.281"
  xmlns="http://www.w3.org/2000/svg">
  <path style="fill:#000;stroke-width:.130424" d="M51.823 43.252c-.069 0-.168.24-.22.533-.312 1.711-2.46 3.801-4.29 4.174-.205.042-.372.131-.372.199 0 .08-7.351.123-20.969.123-13.616 0-20.966-.043-20.966-.123 0-.068-.168-.157-.373-.199-1.83-.373-3.979-2.463-4.29-4.174-.052-.293-.152-.533-.22-.533-.073 0-.123-3.958-.123-9.745 0-6.414.045-9.745.136-9.745.073 0 .135-.081.135-.18 0-.256.641-.928 1.091-1.145.922-.443 2.14-.064 2.698.84l.337.547.034 9.494c.038 10.592-.014 10.025.98 10.602l.474.275h40.177l.473-.275c.994-.577.942-.01.98-10.603l.035-9.493.337-.547c.556-.904 1.774-1.283 2.697-.84.45.216 1.091.89 1.091 1.145 0 .1.061.18.136.18.088 0 .135 3.331.135 9.745 0 5.787-.05 9.745-.123 9.745z"/><path d="m25.936 2.962-1.016.497c-.367.385-.962 1.12-1.025 1.55-.048.322-.087 5.694-.087 11.937 0 11.31 0 11.35-.272 11.285-.149-.036-.428-.244-.62-.46-.191-.217-2.213-2.133-4.492-4.26-4.584-4.279-4.793-4.426-5.882-4.124-.352.099-.764.354-1.077.67-.463.464-.508.572-.508 1.224 0 .597.066.795.4 1.204.394.485 13.25 12.54 13.698 12.845.298.204 1.538.204 1.836 0 .545-.372 13.461-12.524 13.764-12.95.25-.35.333-.636.333-1.14 0-.605-.052-.727-.507-1.184-.314-.315-.725-.57-1.077-.669-1.09-.302-1.298-.155-5.883 4.124-2.278 2.127-4.299 4.043-4.491 4.26-.192.216-.47.424-.62.46-.272.065-.273.027-.273-11.285 0-6.243-.039-11.615-.086-11.938-.064-.43-.221-.727-.589-1.112l-.792-.561"
  style="fill:#000;stroke-width:.0345079"/>
</svg>